<?xml version="1.0" encoding="utf-8"?>
<!-- Generator: Adobe Illustrator 23.0.3, SVG Export Plug-In . SVG Version: 6.00 Build 0)  -->
<svg version="1.1" id="Capa_1" xmlns="http://www.w3.org/2000/svg" xmlns:xlink="http://www.w3.org/1999/xlink" x="0px" y="0px"
	 viewBox="0 0 53 53" style="enable-background:new 0 0 53 53;" xml:space="preserve">
<style type="text/css">
	.st0{fill:#503280;}
</style>
<path class="st0" d="M50.7,50.4l-14-14.5c3.6-3.6,5.8-8.5,5.8-13.9c0-10.9-8.9-19.8-19.8-19.8S3,11,3,21.9s8.9,19.8,19.8,19.8
	c4.8,0,9.2-1.7,12.6-4.5l14,14.6c0.2,0.2,0.4,0.3,0.7,0.3c0.2,0,0.5-0.1,0.7-0.3C51,51.3,51.1,50.7,50.7,50.4z M22.7,39.8
	c-9.9,0-17.9-8-17.9-17.9S12.9,4,22.7,4s17.9,8,17.9,17.9S32.6,39.8,22.7,39.8z"/>
</svg>
